<?xml version="1.0" encoding="UTF-8" standalone="no"?>
<!DOCTYPE svg PUBLIC "-//W3C//DTD SVG 1.1//EN" "http://www.w3.org/Graphics/SVG/1.1/DTD/svg11.dtd">
<svg width="300pt" viewBox="0 0 255.12 226.77" version="1.1" xmlns="http://www.w3.org/2000/svg" xmlns:xlink="http://www.w3.org/1999/xlink" xml:space="preserve" style="fill-rule:evenodd;clip-rule:evenodd;stroke-linejoin:round;stroke-miterlimit:1.41421;">
	<style>
		:root {
			--outline-color: #000;
			--text-color: #520;
			--pie-color: #742;
		}
		
		@media (prefers-color-scheme: dark) {
			:root {
				--outline-color: #445;
				--text-color: #c42;
			}
		}
		
		.ruby0{fill:#EE3129;}
		.ruby1{fill:#ED1C24;}
		.ruby2{fill:#D2232A;}
		
		.text path {
			fill: var(--text-color);
		}
		
		.heat {
			fill: var(--outline-color);
		}
		
		.pie {
			fill: var(--pie-color);
		}
	</style>
	<g class="text">
		<path d="M58.01,204.41c5,0,6.41-3.02,5.87-7.47l-1.37-11.22c-0.54-4.46-2.78-7.47-8.05-7.47h-4.92l3.8,26.16H58.01z M52.86,166.43
			c5.39,0,6.96-2.89,6.41-7.35l-1.34-10.97c-0.53-4.34-2.91-7.36-8.56-7.36H44.1l3.73,25.68H52.86z M45.08,216.22
			c-2.39,0-4.07-1.57-4.53-4.22L26.8,133.03c-0.46-2.65,0.95-4.1,3.78-4.1h17.2c16.69,0,24.71,6.27,25.91,19.17l0.58,6.27
			c0.84,9.04-1.95,14.95-9.17,17.48l0.12,1.08c7.72,2.65,11.56,8.56,12.39,17.48l0.6,6.51c1.21,13.02-4.5,19.29-18.6,19.29H45.08z"/>
	</g>
	<g class="text">
		<path d="M99.75,187.17h11.74l-2.85-18.57l-4.14-29.18h-1.13l-2.01,29.18L99.75,187.17z M115.19,212.49l-1.94-13.5H98.98l-0.84,13.5
			c-0.18,2.78-1.75,3.74-3.59,3.74h-5.86c-2.71,0-4.19-2.17-3.99-5.06l6.2-78.25c0.21-2.89,1.82-3.98,4.39-3.98h16.69
			c2.57,0,4.12,1.09,4.55,3.98l11.92,78.25c0.41,3.02-0.91,5.06-3.62,5.06h-5.86C117.21,216.22,115.46,215.26,115.19,212.49"/>
	</g>
	<g class="text">
		<path d="M150.16,166.19h0.96l17.76-34.84c0.9-1.57,2.37-2.41,4.43-2.41h7.7c4.49,0,4.31,3.98,3.35,5.79l-20.55,37.86l12.37,37.86
			c0.46,1.81-0.19,5.79-3.99,5.79h-6.51c-1.74,0-2.86-0.84-3.39-2.41l-11.84-34.84h-0.94l-1.63,33.04c-0.13,2.65-1.62,4.22-4,4.22
			h-6.18c-2.39,0-3.76-1.57-3.71-4.22l1.62-78.98c0.05-2.65,1.75-4.1,4.58-4.1h7.32c2.82,0,4.42,1.45,4.29,4.1L150.16,166.19z"/>
	</g>
	<g class="text">
		<path d="M226.97,128.93c2.82,0,4.22,1.45,3.71,4.1l-0.67,3.5c-0.51,2.65-2.44,4.22-5.2,4.22h-18.98L202,166.67h13.53
			c2.63,0,3.93,1.45,3.45,4.1l-0.64,3.5c-0.48,2.65-2.29,4.22-4.86,4.22h-13.23l-3.84,25.92h16.78c2.45,0,3.62,1.45,3.11,4.1
			l-0.67,3.5c-0.51,2.65-2.21,4.22-4.6,4.22h-26.35c-2.39,0-3.61-1.57-3.29-4.22l9.42-78.97c0.32-2.65,2.16-4.1,4.98-4.1H226.97z"/>
	</g>
	<g class="pie">
		<path d="M16.15,106.69c0.29-1.13,0.48-2.3,0.9-3.39c2.12-5.56,6.26-9.07,12.07-9.44c8.69-0.54,16.32-3.72,23.71-7.87
			c5.54-3.11,10.91-6.53,16.57-9.41c11.73-5.97,24.19-9.82,37.18-11.97c11.18-1.85,22.42-2.3,33.72-1.37
			c21.93,1.8,42.22,8.51,60.84,20.26c6.24,3.94,12.72,7.38,19.93,9.18c2.16,0.54,4.41,0.85,6.63,0.95
			c7.94,0.39,14.31,6.68,14.28,14.26c-0.03,6.88-5.6,13-12.65,13.98c-2.45,0.34-4.85,0.2-7.17-0.62c-0.98-0.35-1.95-0.87-2.78-1.5
			c-2.75-2.09-5.4-4.36-8.71-5.53c-8.38-2.96-16.25-2.04-23.46,3.36c-1.38,1.04-2.68,2.2-4.14,3.11c-3.56,2.2-7.24,2.22-10.83,0.05
			c-1.44-0.87-2.71-2.01-4.05-3.04c-9.03-6.88-20.69-6.86-29.72,0.06c-0.99,0.76-1.96,1.54-2.96,2.29
			c-4.02,3.01-8.81,2.97-12.85-0.02c-2.18-1.62-4.26-3.48-6.66-4.67c-9-4.45-17.67-3.71-25.83,2.23c-1.19,0.86-2.31,1.83-3.49,2.69
			c-3.66,2.67-8.44,2.66-12.13,0.03c-2.36-1.68-4.56-3.7-7.12-4.97c-8.95-4.43-17.6-3.68-25.74,2.22c-0.59,0.43-1.2,0.86-1.73,1.36
			c-5,4.72-13.69,3.65-18.31-0.17c-2.83-2.35-4.66-5.24-5.22-8.91c-0.04-0.24-0.16-0.48-0.24-0.71V106.69z"/>
	</g>
	<g class="heat">
		<path d="M130.35,15.28c1.42,0.93,2.5,1.98,3.4,3.21c3.37,4.56,3.72,10.72,0.69,15.53c-1.17,1.86-2.69,3.49-4,5.25
			c-0.59,0.79-1.15,1.63-1.57,2.52c-0.73,1.5-0.46,3.01,0.25,4.45c1.12,2.28,2.86,4.06,4.63,5.83c0.17,0.17,0.33,0.33,0.5,0.49
			c-0.02,0.07-0.04,0.14-0.07,0.21c-1.12-0.29-2.26-0.51-3.35-0.89c-2.52-0.88-4.68-2.29-6.19-4.56c-1.54-2.31-1.85-4.81-1.17-7.49
			c0.7-2.7,2.41-4.75,4.19-6.77c1.57-1.78,2.85-3.73,3.55-6.02c0.94-3.05,0.67-6.1-0.11-9.13C130.91,17.09,130.64,16.27,130.35,15.28
			"/>
	</g>
	<g class="heat">
		<path d="M149.18,29.16c1.85,0.93,3.12,2.2,3.94,3.88c1.94,3.97,1.17,7.65-1.35,11.08c-0.7,0.95-1.52,1.82-2.28,2.73
			c-1.01,1.22-1.11,2.56-0.32,3.9c0.68,1.16,1.48,2.26,2.22,3.39c0.14,0.21,0.3,0.41,0.54,0.74c-2.82-0.03-5.16-0.86-6.94-2.92
			c-1.85-2.13-2.2-5.2-0.81-7.72c0.67-1.22,1.47-2.4,2.41-3.42c2.77-2.99,3.52-6.46,2.8-10.36C149.31,30.1,149.27,29.73,149.18,29.16
			"/>
	</g>
	<g class="heat">
		<path d="M112.72,53.23c-4.19,0.37-9.74-3.29-8.17-9.14c0.48-1.78,1.44-3.27,2.68-4.54c3.11-3.18,3.87-6.94,2.98-11.16
			c-0.04-0.2-0.06-0.41-0.11-0.77c0.4,0.22,0.69,0.35,0.95,0.53c3.48,2.3,4.91,6.8,3.5,10.96c-0.57,1.69-1.53,3.15-2.7,4.48
			c-0.3,0.34-0.6,0.67-0.9,1.01c-1.67,1.85-1.85,3.04-0.59,5.19C111.07,50.95,111.91,52.05,112.72,53.23"/>
	</g>
	<g>
		<path class="ruby0" d="M136.18,85.01c0,0,0.26-0.75,1.06-0.76l8.03-0.07c0,0,0.79-0.01,0.28,0.6l-15.22,17.94
			c0,0-0.51,0.61-0.25-0.14L136.18,85.01z"/>
	</g>
	<g>
		<path class="ruby1" d="M129.53,102.27c0,0-0.26,0.75-0.52,0l-5.95-17.34c0,0-0.26-0.75,0.54-0.75h11.34c0,0,0.79,0,0.54,0.75
			L129.53,102.27z"/>
	</g>
	<g>
		<path class="ruby0" d="M129.74,77.78c0,0-0.57-0.55-1.14,0l-5.42,5.29c0,0-0.57,0.55,0.23,0.55h11.52c0,0,0.79,0,0.23-0.55
			L129.74,77.78z"/>
	</g>
	<g>
		<path class="ruby1" d="M122.48,82.8L122.48,82.8l-2.49-5.47c0,0-0.33-0.72,0.46-0.72h7.42c0,0,0.79,0,0.23,0.56L122.48,82.8z"/>
	</g>
	<g>
		<path class="ruby0" d="M139.27,77.43L139.27,77.43l-2.49,5.47c0,0-0.33,0.72,0.46,0.72h7.98c0,0,0.79,0,0.21-0.54L139.27,77.43z"/>
	</g>
	<g>
		<path class="ruby1" d="M135.85,82.8L135.85,82.8l2.49-5.47c0,0,0.33-0.72-0.46-0.72h-7.42c0,0-0.79,0-0.23,0.56L135.85,82.8z"/>
	</g>
	<g>
		<path class="ruby0" d="M122.18,85.01c0,0-0.26-0.75-1.06-0.76l-8.03-0.07c0,0-0.79-0.01-0.28,0.6l15.22,17.94
			c0,0,0.51,0.61,0.25-0.14L122.18,85.01z"/>
	</g>
	<g>
		<path class="ruby0" d="M119.09,77.43L119.09,77.43l2.49,5.47c0,0,0.33,0.72-0.46,0.72h-7.98c0,0-0.79,0-0.21-0.54L119.09,77.43z"/>
	</g>
	<g>
		<path class="ruby0" d="M85.85,89.5c0,0,0.06-0.79,0.82-1l7.73-2.14c0,0,0.77-0.21,0.43,0.51l-10.06,21.27c0,0-0.34,0.72-0.28-0.07
			L85.85,89.5z"/>
	</g>
	<g>
		<path class="ruby1" d="M83.9,107.89c0,0-0.05,0.79-0.5,0.13l-10.23-15.2c0,0-0.44-0.66,0.32-0.86l10.95-2.93c0,0,0.77-0.2,0.71,0.59
			L83.9,107.89z"/>
	</g>
	<g>
		<path class="ruby0" d="M77.76,84.19c0,0-0.69-0.39-1.1,0.29L72.8,91c0,0-0.4,0.68,0.36,0.48l11.13-2.98c0,0,0.77-0.21,0.07-0.6
			L77.76,84.19z"/>
	</g>
	<g>
		<path class="ruby1" d="M72.05,90.92L72.05,90.92l-3.83-4.64c0,0-0.51-0.61,0.26-0.82l7.17-1.92c0,0,0.77-0.2,0.37,0.48L72.05,90.92z"
			/>
	</g>
	<g>
		<path class="ruby0" d="M86.87,81.38L86.87,81.38l-0.99,5.93c0,0-0.13,0.78,0.64,0.58l7.71-2.07c0,0,0.77-0.2,0.06-0.57L86.87,81.38z"
			/>
	</g>
	<g>
		<path class="ruby2" d="M84.97,87.46L84.97,87.46l0.99-5.93c0,0,0.13-0.78-0.64-0.58l-7.17,1.92c0,0-0.77,0.21-0.08,0.6L84.97,87.46z"
			/>
	</g>
	<g>
		<path class="ruby0" d="M72.33,93.13c0,0-0.45-0.66-1.22-0.46l-7.77,2.01c0,0-0.77,0.2-0.11,0.65l19.35,13.39c0,0,0.65,0.45,0.21-0.21
			L72.33,93.13z"/>
	</g>
	<g>
		<path class="ruby0" d="M67.38,86.61L67.38,86.61l3.83,4.64c0,0,0.51,0.61-0.26,0.82l-7.71,2.07c0,0-0.77,0.21-0.34-0.46L67.38,86.61z
			"/>
	</g>
	<g>
		<path class="ruby0" d="M183.84,93.14c0,0,0.45-0.66,1.22-0.46l7.77,2.01c0,0,0.77,0.2,0.11,0.65l-19.35,13.39
			c0,0-0.65,0.45-0.21-0.21L183.84,93.14z"/>
	</g>
	<g>
		<path class="ruby1" d="M172.95,108.1c0,0-0.44,0.66-0.5-0.13l-1.26-18.28c0,0-0.06-0.79,0.71-0.59l10.95,2.93c0,0,0.77,0.2,0.32,0.86
			L172.95,108.1z"/>
	</g>
	<g>
		<path class="ruby0" d="M179.49,84.49c0,0-0.41-0.68-1.1-0.29l-6.6,3.71c0,0-0.69,0.39,0.07,0.6l11.13,2.98c0,0,0.77,0.2,0.36-0.48
			L179.49,84.49z"/>
	</g>
	<g>
		<path class="ruby1" d="M171.18,87.47L171.18,87.47l-0.99-5.93c0,0-0.13-0.78,0.64-0.58l7.17,1.92c0,0,0.77,0.21,0.08,0.6
			L171.18,87.47z"/>
	</g>
	<g>
		<path class="ruby0" d="M188.78,86.62L188.78,86.62l-3.83,4.64c0,0-0.51,0.61,0.26,0.82l7.71,2.07c0,0,0.77,0.21,0.34-0.46
			L188.78,86.62z"/>
	</g>
	<g>
		<path class="ruby1" d="M184.09,90.93L184.09,90.93l3.83-4.64c0,0,0.51-0.61-0.26-0.82l-7.17-1.92c0,0-0.77-0.2-0.37,0.48
			L184.09,90.93z"/>
	</g>
	<g>
		<path class="ruby0" d="M170.31,89.52c0,0-0.06-0.79-0.82-1l-7.73-2.14c0,0-0.77-0.21-0.43,0.51l10.06,21.27c0,0,0.34,0.72,0.28-0.07
			L170.31,89.52z"/>
	</g>
	<g>
		<path class="ruby0" d="M169.29,81.4L169.29,81.4l0.99,5.93c0,0,0.13,0.78-0.64,0.58l-7.71-2.07c0,0-0.77-0.2-0.06-0.57L169.29,81.4z"
			/>
	</g>
</svg>
